<svg width="18" height="15" viewBox="0 0 18 15" fill="none" xmlns="http://www.w3.org/2000/svg">
<path d="M18 7.03414C18 7.2322 17.1418 7.88982 17.0013 8.02987C16.8609 8.16993 17.2 8.02987 17.0013 8.02987L2.02141 8.02987L8.01338 13.0085C7.97572 12.9179 8.08297 13.0779 8.01338 13.0085C8.05105 13.0992 8.01338 13.9061 8.01338 14.0043C8.01338 14.1024 8.05105 13.9136 8.01338 14.0043C7.97572 14.0949 8.08297 13.9349 8.01338 14.0043C7.94379 14.0737 7.10565 13.9667 7.01472 14.0043C6.9238 14.0418 7.11314 15 7.01472 15C6.91631 15 7.10565 14.0418 7.01472 14.0043C6.9238 13.9667 6.08565 14.0737 6.01606 14.0043L0.0240912 8.02987C-0.0455478 7.96052 0.0617839 7.1248 0.0240912 7.03414C-0.0136015 6.94348 0.0240912 7.13228 0.0240912 7.03414C-0.0136015 7.1248 0.0240912 6.936 0.0240912 7.03414C0.0617839 6.94348 -0.0455478 6.10777 0.0240912 6.03841L6.01606 0.0640139C6.1566 -0.0761161 6.81597 0.0640139 7.01472 0.0640139C7.21348 0.0640139 7.87284 -0.0761161 8.01338 0.0640139C8.01338 -0.13416 8.15393 0.204144 8.01338 0.0640139C8.01338 0.262187 8.15393 0.919616 8.01338 1.05975L2.02141 6.03841L17.0013 6.03841C16.8609 5.89836 17.2 6.03841 17.0013 6.03841C17.1418 6.17846 18 6.83608 18 7.03414Z" fill="white"/>
</svg>
