<svg width="18" height="15" viewBox="0 0 18 15" fill="none" xmlns="http://www.w3.org/2000/svg">
<path d="M-7.31723e-09 7.96586C-7.52326e-09 7.7678 0.858198 7.11018 0.998661 6.97013C1.13913 6.83007 0.800014 6.97013 0.998661 6.97013L15.9786 6.97013L9.98662 1.99146C10.0243 2.08212 9.91703 1.92208 9.98662 1.99146C9.94895 1.90081 9.98662 1.09386 9.98662 0.995732C9.98662 0.897607 9.94895 1.08639 9.98662 0.995732C10.0243 0.905076 9.91703 1.06512 9.98662 0.995732C10.0562 0.926347 10.8944 1.03328 10.9853 0.995732C11.0762 0.958181 10.8869 7.3994e-09 10.9853 7.29703e-09C11.0837 7.19465e-09 10.8944 0.958181 10.9853 0.995732C11.0762 1.03328 11.9143 0.926347 11.9839 0.995732L17.9759 6.97013C18.0455 7.03948 17.9382 7.8752 17.9759 7.96586C18.0136 8.05652 17.9759 7.86772 17.9759 7.96586C18.0136 7.8752 17.9759 8.064 17.9759 7.96586C17.9382 8.05652 18.0455 8.89223 17.9759 8.96159L11.9839 14.936C11.8434 15.0761 11.184 14.936 10.9853 14.936C10.7865 14.936 10.1272 15.0761 9.98662 14.936C9.98662 15.1342 9.84607 14.7959 9.98662 14.936C9.98662 14.7378 9.84607 14.0804 9.98662 13.9403L15.9786 8.96159L0.998661 8.96159C1.13913 9.10164 0.800014 8.96159 0.998661 8.96159C0.858198 8.82154 -7.11119e-09 8.16392 -7.31723e-09 7.96586Z" fill="white"/>
</svg>
