<svg width="35" height="35" viewBox="0 0 35 35" fill="none" xmlns="http://www.w3.org/2000/svg">
<path d="M34.0678 6.66006C33.9452 6.51432 34.2411 6.74048 34.0678 6.66006C33.8946 6.57963 34.259 6.66003 34.0678 6.66006H6.63944V1.47046C6.53009 0.872577 5.80294 0.562488 5.33332 0.17306C4.86371 -0.216368 4.63896 0.173147 4.02721 0.17306H1.41498C1.06858 0.17306 0.353808 -0.07025 0.108864 0.17306C-0.13608 0.416369 0.108864 1.12637 0.108864 1.47046C-0.13608 1.22715 0.108864 1.81455 0.108864 1.47046C0.353808 1.71377 1.06858 2.76786 1.41498 2.76786H4.02721L7.94555 24.8237C8.06848 25.4984 8.80459 25.5986 9.25167 26.1211C8.6346 26.6936 8.16986 27.9073 7.94555 28.7159C7.72124 29.5244 7.71081 30.505 7.94555 31.3106C8.18029 32.1163 8.62726 33.3409 9.25167 33.9054C9.87608 34.47 9.72827 33.7488 10.5578 33.9054C11.3873 34.0621 12.3806 34.2031 13.17 33.9054C13.9594 33.6078 15.2663 33.272 15.7822 32.608C16.2982 31.9441 15.6922 30.8472 15.7822 30.0133C15.8723 29.1793 16.1448 29.4733 15.7822 28.7159H23.6189C23.3267 29.3235 23.618 29.3398 23.6189 30.0133C23.6189 30.9114 23.1166 31.8613 23.6189 32.608C24.1212 33.3548 25.3958 33.5618 26.2312 33.9054C27.0665 34.2491 27.9566 34.0807 28.8434 33.9054C29.7301 33.7302 29.5102 33.2431 30.1495 32.608C30.7888 31.973 31.2792 32.1915 31.4556 31.3106C31.632 30.4298 31.8016 29.5456 31.4556 28.7159C31.1096 27.8861 30.9013 26.62 30.1495 26.1211C29.3977 25.6221 28.4414 26.1211 27.5373 26.1211H11.8639C11.558 26.121 10.7926 25.0184 10.5578 24.8237C10.323 24.6289 10.6125 25.1226 10.5578 24.8237V22.2289H28.8434C29.761 22.2287 30.7512 21.5156 31.4556 20.9315C32.16 20.3473 32.5977 19.2335 32.7617 18.3367L34.0678 7.95746C34.1015 7.77005 34.1175 6.84391 34.0678 6.66006C34.1914 6.80559 34.0182 6.4762 34.0678 6.66006ZM14.4761 30.0133C14.4761 30.3982 13.3853 30.9906 13.17 31.3106C12.9547 31.6307 13.528 31.1634 13.17 31.3106C12.812 31.4579 12.2439 31.3857 11.8639 31.3106C11.4839 31.2356 10.8318 31.5828 10.5578 31.3106C10.2838 31.0385 10.6334 30.3908 10.5578 30.0133C10.4822 29.6357 10.4095 29.0715 10.5578 28.7159C10.2356 28.9297 10.7061 28.3602 10.5578 28.7159C10.88 28.502 11.4764 28.7159 11.8639 28.7159C12.3835 28.7159 12.8026 28.3509 13.17 28.7159C13.5374 29.0808 14.4761 29.4971 14.4761 30.0133ZM30.1495 30.0133C30.1495 30.3982 29.0587 30.9906 28.8434 31.3106C28.6281 31.6307 29.2014 31.1634 28.8434 31.3106C28.4854 31.4579 27.9173 31.3857 27.5373 31.3106C27.1572 31.2356 26.5051 31.5828 26.2312 31.3106C25.9572 31.0385 26.3067 30.3908 26.2312 30.0133C26.1556 29.6357 26.0829 29.0715 26.2312 28.7159C25.909 28.9297 26.3794 28.3602 26.2312 28.7159C26.5533 28.502 27.1498 28.7159 27.5373 28.7159C28.0569 28.7159 28.476 28.3509 28.8434 28.7159C29.2108 29.0808 30.1495 29.4971 30.1495 30.0133ZM30.1495 18.3367C30.0947 18.6364 30.3853 18.1418 30.1495 18.3367C29.9137 18.5315 29.1501 19.6352 28.8434 19.6341H9.25167L7.94555 9.25486H31.4556L30.1495 18.3367Z" fill="white"/>
</svg>
