<svg width="18" height="19" viewBox="0 0 18 19" fill="none" xmlns="http://www.w3.org/2000/svg">
<path d="M16.0138 1.05376H14.0276V0.0636187C14.0276 -0.133332 14.1673 0.202884 14.0276 0.0636187C13.8879 -0.0756462 13.232 0.0636187 13.0345 0.0636187C12.8369 0.0636187 12.1811 -0.0756462 12.0414 0.0636187C11.9017 0.202884 12.0414 -0.133332 12.0414 0.0636187V1.05376H5.08967V0.0636187C5.08967 -0.133332 5.22935 0.202884 5.08967 0.0636187C4.94999 -0.0756462 4.29411 0.0636187 4.09657 0.0636187C3.89903 0.0636187 3.24315 -0.0756462 3.10347 0.0636187C2.96379 0.202884 3.10347 -0.133332 3.10347 0.0636187V1.05376H1.11726C0.722183 1.05376 0.403526 0.775225 0.124162 1.05376C-0.155202 1.33228 0.124162 2.64013 0.124162 3.03403V17.8861C0.124162 18.28 -0.155202 18.5977 0.124162 18.8762C0.403526 19.1547 0.722183 18.8762 1.11726 18.8762H16.0138C16.4089 18.8762 16.7275 19.1547 17.0069 18.8762C17.2863 18.5977 18 18.28 18 17.8861V3.03403C18 2.64013 17.2863 1.33228 17.0069 1.05376C16.7275 0.775225 16.4089 1.05376 16.0138 1.05376ZM3.10347 3.03403C3.10347 3.23098 2.96379 3.8849 3.10347 4.02416C3.24315 4.16343 3.89903 4.02416 4.09657 4.02416C4.29411 4.02416 4.94999 4.16343 5.08967 4.02416C5.22935 3.8849 5.08967 3.23098 5.08967 3.03403H12.0414C12.0414 3.23098 11.9017 3.8849 12.0414 4.02416C12.1811 4.16343 12.8369 4.02416 13.0345 4.02416C13.232 4.02416 13.8879 4.16343 14.0276 4.02416C14.1673 3.8849 14.0276 3.23098 14.0276 3.03403H16.0138V6.00444H1.11726V3.03403H3.10347ZM16.0138 17.8861H1.11726V6.99457H16.0138V17.8861ZM7.07588 8.97485V14.9157C7.07588 15.1126 7.21556 15.7665 7.07588 15.9058C6.93619 16.0451 6.28031 15.9058 6.08277 15.9058C5.88523 15.9058 6.22246 16.0451 6.08277 15.9058C5.94309 15.7665 6.08277 15.1126 6.08277 14.9157V9.96498L5.08967 10.9551C4.91287 11.0433 5.2772 11.0174 5.08967 10.9551C4.90215 10.8928 4.18497 10.1413 4.09657 9.96498C4.00817 9.78871 4.03406 10.1519 4.09657 9.96498C4.15908 9.77802 3.91977 9.06298 4.09657 8.97485H6.08277C5.95588 8.96916 6.19637 8.91817 6.08277 8.97485C6.20967 8.98053 6.96783 8.90824 7.07588 8.97485C7.18392 9.04145 7.01407 8.8642 7.07588 8.97485C7.13768 9.08549 7.07597 8.8482 7.07588 8.97485ZM13.0345 11.9453L11.0483 14.9157H12.0414C12.2389 14.9157 12.8948 14.7764 13.0345 14.9157C13.0345 14.7187 13.1742 15.0549 13.0345 14.9157C13.0345 15.1126 13.1742 15.7665 13.0345 15.9058C12.8948 16.0451 12.2389 15.9058 12.0414 15.9058H9.06208C8.92376 15.9058 9.17974 15.9783 9.06208 15.9058C8.94442 15.8333 9.12394 16.0292 9.06208 15.9058C9.00022 15.7824 9.04966 15.053 9.06208 14.9157C8.97909 15.026 9.0745 14.7783 9.06208 14.9157L11.0483 10.9551C11.0245 11.0535 11.1092 10.8742 11.0483 10.9551C11.0655 11.0548 11.0721 10.8568 11.0483 10.9551C11.0311 10.8554 11.1037 10.0497 11.0483 9.96498C10.9929 9.88023 11.1328 10.0209 11.0483 9.96498C10.9637 9.90905 11.1482 9.98294 11.0483 9.96498C10.9484 9.94703 11.1471 9.94202 11.0483 9.96498C10.9495 9.98794 10.1368 9.90487 10.0552 9.96498C9.97356 10.0251 10.1062 9.87755 10.0552 9.96498C10.0077 10.0521 10.1329 10.8932 10.0552 10.9551C9.97747 11.017 10.1509 10.9282 10.0552 10.9551C9.95945 10.982 9.16077 10.9674 9.06208 10.9551C8.96339 10.9428 9.14821 11.0047 9.06208 10.9551C8.97595 10.9055 9.12209 10.0441 9.06208 9.96498C9.00207 9.8859 9.08654 10.0611 9.06208 9.96498C9.03762 9.86886 9.04713 10.063 9.06208 9.96498C9.01008 10.0495 9.07703 9.86694 9.06208 9.96498C9.30812 9.54048 9.60083 9.16237 10.0552 8.97485C10.5095 8.78732 10.5733 8.84794 11.0483 8.97485C11.5233 9.10175 12.7351 8.58593 13.0345 8.97485C13.3339 9.36376 13.0343 10.4648 13.0345 10.9551C13.0361 11.4394 13.3283 11.5596 13.0345 11.9453Z" fill="#0D7CF2"/>
</svg>
