<svg width="16" height="21" viewBox="0 0 16 21" fill="none" xmlns="http://www.w3.org/2000/svg">
<path d="M12.0598 20.0087C12.0598 20.2059 12.1984 19.8693 12.0598 20.0087C11.9213 20.1482 12.2558 21 12.0598 21H4.1795C3.98356 21 3.33301 20.1482 3.19446 20.0087C3.05591 19.8693 3.19446 20.2059 3.19446 20.0087C3.19446 19.8116 3.05591 19.1569 3.19446 19.0175C3.33301 18.878 3.98356 19.0175 4.1795 19.0175H12.0598C11.9213 18.878 12.2558 19.0175 12.0598 19.0175C12.1984 19.1569 12.0598 19.8116 12.0598 20.0087ZM16 8.11354C16.0032 9.35291 15.5533 9.97266 15.0149 11.0873C14.4766 12.202 14.0153 13.298 13.0449 14.0611C12.8634 14.2011 12.1616 14.8464 12.0598 15.0524C11.958 15.2584 12.0612 14.8223 12.0598 15.0524V16.0437C12.0598 16.438 12.3369 16.7561 12.0598 17.0349C11.7827 17.3138 11.4667 18.0262 11.0748 18.0262H5.16454C4.77267 18.0262 4.4566 17.3138 4.1795 17.0349C3.9024 16.7561 3.19446 16.438 3.19446 16.0437V15.0524C3.19431 14.8251 3.2942 15.2564 3.19446 15.0524C3.09472 14.8484 3.37334 14.1999 3.19446 14.0611C2.22648 13.3025 0.779636 12.1959 0.239341 11.0873C-0.300955 9.97882 0.242908 9.34821 0.239341 8.11354C0.21533 3.68444 3.72207 0.289349 8.11966 0.183407C9.20322 0.15713 10.0661 -0.215793 11.0748 0.183407C12.0835 0.582606 13.2544 1.40391 14.0299 2.16594C14.8054 2.92796 14.5944 4.13448 15.0149 5.13974C15.4355 6.145 16.0003 7.02281 16 8.11354ZM15.0149 8.11354C15.0152 7.22108 14.3741 5.96226 14.0299 5.13974C13.6858 4.31722 12.6944 3.78069 12.0598 3.15721C11.4253 2.53372 10.9151 1.50126 10.0897 1.17467C9.26441 0.848086 9.00625 1.15311 8.11966 1.17467C4.51811 1.26017 1.20499 4.48922 1.22438 8.11354C1.22775 9.12332 1.76721 10.1809 2.20942 11.0873C2.65163 11.9938 3.38766 12.4496 4.1795 13.0699C4.53545 13.3483 3.98166 13.6535 4.1795 14.0611C4.37734 14.4688 5.16519 14.5987 5.16454 15.0524V16.0437H11.0748V15.0524C11.0758 14.5974 10.8752 14.4694 11.0748 14.0611C11.2744 13.6529 11.7023 13.3484 12.0598 13.0699C12.8541 12.4452 13.5893 11.9997 14.0299 11.0873C14.4705 10.1749 15.0177 9.12797 15.0149 8.11354ZM13.0449 7.12227C12.8533 6.04547 11.8435 4.92191 11.0748 4.14847C10.306 3.37504 10.1748 3.34975 9.1047 3.15721C9.00902 3.14097 8.21423 3.13535 8.11966 3.15721C8.02509 3.17906 8.19873 3.1006 8.11966 3.15721C8.0406 3.21382 8.17118 3.07446 8.11966 3.15721C8.06814 3.23995 8.13579 3.06092 8.11966 3.15721C8.09795 3.06204 8.10353 3.25349 8.11966 3.15721C8.14138 3.25238 8.06341 4.06891 8.11966 4.14847C8.03743 4.09663 8.17592 4.22804 8.11966 4.14847C8.02398 4.13224 8.20189 4.20032 8.11966 4.14847C9.64986 4.40775 11.8003 5.57961 12.0598 7.12227C12.0891 7.29542 11.9265 8.00025 12.0598 8.11354C11.8853 8.1136 12.1932 8.22683 12.0598 8.11354C12.0186 8.12009 12.1016 8.11329 12.0598 8.11354C12.2529 8.08036 12.9316 7.28312 13.0449 7.12227C13.1581 6.96142 13.0778 7.31661 13.0449 7.12227Z" fill="#0D7CF2"/>
</svg>
