<svg width="16" height="20" viewBox="0 0 16 20" fill="none" xmlns="http://www.w3.org/2000/svg">
<path d="M8 3.99216C7.25832 3.99216 6.61668 4.57896 6 4.9902C5.38332 5.40145 4.28383 5.30436 4 5.98824C3.71617 6.67212 3.85531 7.25832 4 7.98433C4.14469 8.71033 4.47555 9.45699 5 9.98041C5.52445 10.5038 6.27257 10.834 7 10.9784C7.72743 11.1229 8.31478 11.2617 9 10.9784C9.68522 10.6952 10.5879 10.5959 11 9.98041C11.4121 9.36493 12 8.72455 12 7.98433C12 6.99171 10.7033 5.69209 10 4.9902C9.29674 4.28832 8.99456 3.99216 8 3.99216ZM8 9.98041C7.55499 9.98041 6.37001 10.2272 6 9.98041C5.62999 9.73366 6.1703 9.39269 6 8.98237C5.8297 8.57204 5.91318 7.42189 6 6.98629C6.08682 6.55068 5.68533 6.3023 6 5.98824C6.31467 5.67419 6.56354 6.07489 7 5.98824C7.43646 5.9016 8.58887 5.81828 9 5.98824C9.41113 6.15821 9.75277 5.61896 10 5.98824C10.2472 6.35753 10 7.54019 10 7.98433C10 8.57989 9.42196 8.56124 9 8.98237C8.57804 9.4035 8.59674 9.98041 8 9.98041ZM8 0C5.81273 0.00247645 3.54664 0.452474 2 1.99608C0.453362 3.53969 0.00248131 5.80134 0 7.98433C0 10.9223 0.422812 14.0128 3 16.9667C4.15802 18.3015 5.57543 18.9139 7 19.9608C7.12611 20.049 7.84603 19.9608 8 19.9608C7.87389 20.049 8.15397 19.9608 8 19.9608C9.42195 18.9135 10.8443 18.3011 12 16.9667C14.5734 14.0128 16 10.9223 16 7.98433C15.9975 5.80134 15.5466 3.53969 14 1.99608C12.4534 0.452474 10.1873 0.00247645 8 0ZM8 18.9628C6.45031 17.7464 1 13.341 1 7.98433C1 6.19762 1.73413 4.25751 3 2.99412C4.26587 1.73073 6.20979 0.998041 8 0.998041C9.79021 0.998041 11.7341 1.73073 13 2.99412C14.2659 4.25751 15 6.19762 15 7.98433C15 13.3391 9.54969 17.7464 8 18.9628Z" fill="#0D7CF2"/>
</svg>
