<svg width="20" height="20" viewBox="0 0 20 20" fill="none" xmlns="http://www.w3.org/2000/svg">
<path d="M19.9158 7.03474C19.8258 6.75704 20.1441 6.22469 19.9158 6.04279C19.6876 5.8609 19.215 6.0685 18.9243 6.04279H13.9665L10.9918 0.091139C10.8791 -0.178995 11.2353 0.253442 10.9918 0.091139C10.7483 -0.0711644 10.2928 0.091139 10.0002 0.091139C9.70764 0.091139 9.25217 -0.0711644 9.00868 0.091139C8.76518 0.253442 9.12135 -0.178995 9.00868 0.091139L6.034 6.04279H1.07621C0.784349 6.06733 0.314153 5.86076 0.0846469 6.04279C-0.144859 6.22482 0.175089 6.75606 0.0846469 7.03474C-0.00579465 7.31342 0.00579358 7.7445 0.0846469 8.02668C0.1635 8.30886 -0.137144 8.82726 0.0846469 9.01862L4.05088 11.9944L3.05932 17.9461C2.99287 18.231 2.95731 18.6639 3.05932 18.938C3.16134 19.2122 3.8144 18.766 4.05088 18.938C4.28737 19.1101 3.75873 19.9173 4.05088 19.93C4.34303 19.9426 4.79198 20.081 5.04244 19.93L10.0002 16.9542L14.958 19.93C15.2085 20.081 15.6574 19.9426 15.9496 19.93C16.2417 19.9173 15.7131 19.1101 15.9496 18.938C16.1861 18.766 16.8391 19.2122 16.9411 18.938C17.0432 18.6639 17.0076 18.231 16.9411 17.9461L15.9496 11.9944L19.9158 9.01862C20.1376 8.8266 19.8376 8.30946 19.9158 8.02668C19.9941 7.7439 20.0073 7.3135 19.9158 7.03474ZM18.9243 8.02668L14.958 11.0025C14.754 11.1801 14.0497 11.737 13.9665 11.9944C13.8833 12.2519 13.905 12.7229 13.9665 12.9864L15.9496 17.9461L10.9918 14.9703C10.7602 14.8292 10.2714 14.9703 10.0002 14.9703C9.72905 14.9703 9.2403 14.8292 9.00868 14.9703L4.05088 17.9461L6.034 12.9864C6.09549 12.7229 6.11721 12.2519 6.034 11.9944C5.95079 11.737 5.24649 11.1801 5.04244 11.0025L1.07621 8.02668C1.07587 8.0239 1.07587 8.02946 1.07621 8.02668L7.02556 7.03474C6.80686 7.19452 7.29533 7.01095 7.02556 7.03474C7.24426 6.87495 7.91238 6.29263 8.01712 6.04279L10.0002 1.08308L11.9834 6.04279C12.0881 6.29263 12.7562 6.87495 12.9749 7.03474C12.7051 7.01095 13.1936 7.19452 12.9749 7.03474L18.9243 8.02668C18.9243 8.02668 18.9243 8.02575 18.9243 8.02668Z" fill="#0D7CF2"/>
</svg>
