<svg width="21" height="21" viewBox="0 0 21 21" fill="none" xmlns="http://www.w3.org/2000/svg">
<path d="M17 4C16.4574 2.70461 15.1693 1.77796 14 1C12.8307 0.222041 11.4044 0 10 0C8.59559 0 7.16928 0.222041 6.00002 1C4.83075 1.77796 3.54257 2.70461 3.00003 4C1.83243 4.5407 1.69566 4.91753 1.00003 6C0.304399 7.08247 0.00679094 8.7133 3.34539e-05 10C-0.010279 13.6394 2.3644 16.9062 6.00002 17C7.09982 17.0287 8.01547 16.491 9.00001 16V20C8.85936 19.8593 9.00001 20.1989 9.00001 20C9.14066 20.1407 9.80109 21 10 21C10.1989 21 10.8594 20.1407 11 20C11 20.1989 11.1407 19.8593 11 20V16C11.9317 16.4646 12.9589 17.0016 14 17C17.6356 16.9062 21.0103 13.6394 21 10C20.9937 8.71296 19.6956 7.08285 19 6C18.3043 4.91715 18.1679 4.54074 17 4ZM14 15C12.9169 15.0302 11.9 14.6034 11 14C10.9706 13.9812 11.0288 14.0169 11 14V10L15 8C14.9354 8.07445 15.0881 7.95592 15 8C14.9688 8.0935 15.0646 7.92555 15 8C15.007 8.09831 15.0312 7.9065 15 8C14.993 7.90169 15.0441 7.08815 15 7C14.9559 6.91185 15.0744 7.06457 15 7C14.9255 6.93543 15.0935 7.03117 15 7C14.9065 6.96883 14.0983 6.99301 14 7C13.9017 7.00699 14.0881 6.95592 14 7L11 9V6C11 5.80109 11.1407 6.14065 11 6C10.8594 5.85935 10.1989 6 10 6C9.80109 6 9.14066 5.85935 9.00001 6C8.85936 6.14065 9.00001 5.80109 9.00001 6V11L6.00002 9C5.82199 8.91099 5.18884 8.93706 5.00002 9C4.81119 9.06294 5.08903 9.82197 5.00002 10C4.91101 10.178 4.93708 9.81117 5.00002 10C5.06296 10.1888 4.82199 10.911 5.00002 11L9.00001 13V14C8.97063 14.0169 9.02876 13.9812 9.00001 14C8.10012 14.6039 7.08338 15.0288 6.00002 15C4.8143 14.9704 3.90997 14.7608 3.00003 14C2.09008 13.2392 1.2392 12.1617 1.00003 11C0.760858 9.83827 1.46461 9.05837 2.00003 8C2.53545 6.94163 2.92243 5.49558 4.00002 5C4.34083 4.84385 4.85561 4.34595 5.00002 4C5.42812 2.97687 6.07675 2.61452 7.00001 2C7.92328 1.38548 8.89093 1 10 1C11.1091 1 12.0767 1.38548 13 2C13.9233 2.61452 14.5719 2.97687 15 4C15.1444 4.34595 15.6592 4.84385 16 5C17.0776 5.49558 17.4646 6.94163 18 8C18.5354 9.05837 19.2392 9.83827 19 11C18.7608 12.1617 17.9099 13.2392 17 14C16.09 14.7608 15.1857 14.9704 14 15Z" fill="#0D7CF2"/>
</svg>
