<svg width="19" height="18" viewBox="0 0 19 18" fill="none" xmlns="http://www.w3.org/2000/svg">
<path d="M18.972 16.9718C17.5485 14.5074 15.5503 12.8177 12.9903 11.9801C14.2566 11.2252 15.4308 10.354 15.9811 8.98505C16.5314 7.61606 16.372 5.41621 15.9811 3.99335C15.5902 2.57049 14.1624 1.89279 12.9903 0.998338C11.8182 0.103888 10.4762 0 9.0025 0C7.52883 0 6.18685 0.103888 5.01472 0.998338C3.84259 1.89279 3.41175 2.57049 3.02083 3.99335C2.62991 5.41621 2.47055 7.61606 3.02083 8.98505C3.57111 10.354 4.74539 11.2252 6.01167 11.9801C3.4517 12.8168 1.45344 14.5065 0.0299935 16.9718C-0.022207 17.057 0.0449985 16.8729 0.0299935 16.9718C0.0149884 17.0706 0.00544254 17.8732 0.0299935 17.9701C-0.0302511 17.8904 0.0545444 18.067 0.0299935 17.9701C-0.0564671 17.9201 0.0902381 18.0498 0.0299935 17.9701C-0.0690811 17.9577 0.116454 18.0201 0.0299935 17.9701C-0.0661087 17.9972 0.129068 17.9825 0.0299935 17.9701C0.126096 17.943 0.948928 18.0325 1.02694 17.9701C0.979292 18.058 1.10495 17.9077 1.02694 17.9701C2.78779 14.9227 5.55089 12.9784 9.0025 12.9784C12.4541 12.9784 16.2142 14.9227 17.975 17.9701C17.897 17.9077 18.0227 18.058 17.975 17.9701C17.8789 17.943 18.053 18.0325 17.975 17.9701C17.8759 17.9825 18.0711 17.9972 17.975 17.9701C18.0741 17.9577 18.8855 18.0201 18.972 17.9701C18.9117 18.0498 19.0584 17.9201 18.972 17.9701C18.9474 18.067 19.0322 17.8904 18.972 17.9701C18.9965 17.8732 18.987 17.0706 18.972 16.9718C19.0242 17.057 18.9569 16.8729 18.972 16.9718ZM4.01778 5.99003C4.01778 4.9534 4.43961 3.85694 5.01472 2.99502C5.58984 2.13309 6.05223 1.39504 7.00861 0.998338C7.96499 0.601639 8.98416 0.796103 9.99945 0.998338C11.0147 1.20057 12.2583 2.26201 12.9903 2.99502C13.7223 3.72802 13.7853 3.97498 13.9872 4.99169C14.1892 6.0084 14.3834 7.02899 13.9872 7.98671C13.5911 8.94443 12.8541 10.4058 11.9933 10.9817C11.1326 11.5576 10.0377 11.9801 9.0025 11.9801C7.61482 11.9786 6.9929 10.966 6.01167 9.98338C5.03043 9.00078 4.01926 7.37965 4.01778 5.99003Z" fill="#0D7CF2"/>
</svg>
