<svg width="17" height="16" viewBox="0 0 17 16" fill="none" xmlns="http://www.w3.org/2000/svg">
<path d="M16.9295 7.00936L12.9627 9.98087L13.9544 14.9334C14.0097 15.1704 14.0394 15.6957 13.9544 15.9239C13.8693 16.152 14.1515 15.7807 13.9544 15.9239C13.7573 16.0671 13.2061 15.9134 12.9627 15.9239C12.7192 15.9344 12.1797 16.0495 11.971 15.9239L8.00415 13.9429L4.03735 15.9239C3.8286 16.0495 4.28084 15.9344 4.03735 15.9239C3.79386 15.9134 3.24275 16.0671 3.04565 15.9239C2.84855 15.7807 2.13897 16.152 2.05395 15.9239C1.96893 15.6957 1.99856 15.1704 2.05395 14.9334L3.04565 9.98087L0.0705492 7.00936C-0.114303 6.85012 0.13627 7.24417 0.0705492 7.00936C0.00482867 6.77455 -0.00482955 6.25075 0.0705492 6.01886C0.145928 5.78696 -0.120733 5.17982 0.0705492 5.02835C0.261831 4.87688 0.819 5.04877 1.06225 5.02835H5.02905L7.01245 0.075839C7.10636 -0.148946 7.80121 0.210895 8.00415 0.075839C7.76029 0.075839 8.20709 -0.0592176 8.00415 0.075839C8.24801 0.075839 8.79291 -0.0592176 8.99585 0.075839C8.90194 -0.148946 9.19879 0.210895 8.99585 0.075839L10.9792 5.02835H15.9378C16.181 5.04877 16.7382 4.87688 16.9295 5.02835C17.1207 5.17982 16.8541 5.78696 16.9295 6.01886C17.0048 6.25075 16.9952 6.77455 16.9295 7.00936C17.1143 6.85012 16.8637 7.24417 16.9295 7.00936Z" fill="white"/>
</svg>
