<svg width="15" height="15" viewBox="0 0 15 15" fill="none" xmlns="http://www.w3.org/2000/svg">
<path d="M14.9369 5.02807C14.8693 4.8198 15.1081 5.16449 14.9369 5.02807C14.7657 4.89165 14.1633 4.05541 13.9453 4.03612H9.97908L7.99596 0.0683543C7.91145 -0.134247 8.17858 0.190082 7.99596 0.0683543C7.81334 -0.0533733 7.22384 0.0683543 7.0044 0.0683543C6.78495 0.0683543 7.18702 -0.0533733 7.0044 0.0683543C6.82178 0.190082 6.09734 -0.134247 6.01284 0.0683543L5.02128 4.03612H1.05504C0.836151 4.05453 0.235615 4.89155 0.0634852 5.02807C-0.108644 5.16459 0.131316 4.81906 0.0634852 5.02807C-0.00434599 5.23708 0.00434519 5.80837 0.0634852 6.02001C-0.102858 5.87649 0.122625 6.23165 0.0634852 6.02001L3.03816 8.99584L2.0466 12.9636C1.99676 13.1773 1.97009 13.7499 2.0466 13.9556C2.12311 14.1612 2.8608 13.8265 3.03816 13.9556C3.21553 14.0846 2.81905 14.938 3.03816 14.9475C3.25728 14.957 3.84188 15.0607 4.02972 14.9475L7.0044 11.9717L10.9706 14.9475C11.1585 15.0607 11.7431 14.957 11.9622 14.9475C12.1813 14.938 11.7848 14.0846 11.9622 13.9556C12.1396 13.8265 12.8772 14.1612 12.9538 13.9556C13.0303 13.7499 13.0036 13.1773 12.9538 12.9636L11.9622 8.99584L14.9369 6.02001C14.8782 6.23209 15.1032 5.87599 14.9369 6.02001C14.9955 5.80793 15.0055 5.23714 14.9369 5.02807ZM13.9453 6.02001L10.9706 8.00389C10.8176 8.13706 11.033 8.80277 10.9706 8.99584C10.9082 9.1889 10.9245 8.79825 10.9706 8.99584L11.9622 13.9556L7.99596 10.9797C7.82224 10.8739 7.20779 10.9797 7.0044 10.9797C6.80101 10.9797 7.17811 10.8739 7.0044 10.9797L3.03816 13.9556L4.02972 8.99584C4.07584 8.79825 4.09213 9.1889 4.02972 8.99584C3.96732 8.80277 4.18275 8.13706 4.02972 8.00389L1.05504 6.02001C1.05479 6.01793 1.05479 6.02209 1.05504 6.02001L5.02128 5.02807C4.85726 5.14791 5.22361 5.01023 5.02128 5.02807C5.1853 4.90823 5.93428 5.21544 6.01284 5.02807L7.0044 1.0603L8.98752 5.02807C8.82349 4.90823 9.06607 5.21544 8.98752 5.02807C9.15154 5.14791 9.77675 5.01023 9.97908 5.02807L13.9453 6.02001C13.9453 6.02001 13.9453 6.01931 13.9453 6.02001Z" fill="white"/>
</svg>
