<svg width="19" height="19" viewBox="0 0 19 19" fill="none" xmlns="http://www.w3.org/2000/svg">
<path d="M9 5C8.10998 5 7.74002 5.50553 7 6C6.25998 6.49447 5.34059 7.17773 5 8C4.65941 8.82227 4.82637 9.12709 5 10C5.17363 10.8729 5.37066 11.3707 6 12C6.62934 12.6293 7.12709 13.8264 8 14C8.87291 14.1736 10.1777 13.3406 11 13C11.8223 12.6594 12.5055 12.74 13 12C13.4945 11.26 14 9.89002 14 9C13.9988 7.80691 12.8436 6.84365 12 6C11.1564 5.15635 10.1931 5.00124 9 5ZM9 12C8.40666 12 8.49335 12.3296 8 12C7.50665 11.6704 6.22706 10.5482 6 10C5.77294 9.45182 5.88424 9.58194 6 9C6.11576 8.41806 6.58044 7.41956 7 7C7.41956 6.58044 8.41806 6.11576 9 6C9.58194 5.88424 9.45182 5.77294 10 6C10.5482 6.22706 11.6704 7.50665 12 8C12.3296 8.49335 12 8.40666 12 9C12 9.79565 11.5626 10.4374 11 11C10.4374 11.5626 9.79565 12 9 12ZM14 0H5C3.60807 0.00148896 1.98424 0.0157566 1 1C0.0157566 1.98424 0.00148896 3.60807 0 5V14C0.00148896 15.3919 0.0157566 16.0158 1 17C1.98424 17.9842 3.60807 18.9985 5 19H14C15.3919 18.9985 16.0158 17.9842 17 17C17.9842 16.0158 18.9985 15.3919 19 14V5C18.9985 3.60807 17.9842 1.98424 17 1C16.0158 0.0157566 15.3919 0.00148896 14 0ZM18 14C18 14.9946 16.7033 15.2967 16 16C15.2967 16.7033 14.9946 18 14 18H5C4.00544 18 2.70326 16.7033 2 16C1.29674 15.2967 1 14.9946 1 14V5C1 4.00544 1.29674 2.70326 2 2C2.70326 1.29674 4.00544 1 5 1H14C14.9946 1 15.2967 1.29674 16 2C16.7033 2.70326 18 4.00544 18 5V14ZM15 4C15 4.2225 15.1236 4.81499 15 5C14.8764 5.18501 15.2056 4.91485 15 5C14.7944 5.08515 14.2182 5.04341 14 5C13.7818 4.95659 13.1573 5.15733 13 5C12.8427 4.84267 13.0434 5.21823 13 5C12.9566 4.78177 12.9149 4.20557 13 4C13.0851 3.79443 12.815 3.12362 13 3C13.185 2.87638 13.7775 3 14 3C14.2984 3 14.789 3.78902 15 4C15.211 4.21098 15 3.70163 15 4Z" fill="white"/>
</svg>
