<svg width="16" height="19" viewBox="0 0 16 19" fill="none" xmlns="http://www.w3.org/2000/svg">
<path d="M16 8.10419C16 10.1912 15.3529 11.6572 14.0289 13.0359C12.7927 14.3203 10.7874 15.0086 9.10124 15.0086C7.44924 15.0086 6.84775 14.59 6.14463 14.0222L5.1591 17.9676C5.12097 18.13 4.30422 18.8504 4.17356 18.954C4.0429 19.0575 4.34023 18.954 4.17356 18.954C4.11634 18.9539 4.22932 18.9668 4.17356 18.954C4.0787 18.9322 4.25281 19.0105 4.17356 18.954C4.09431 18.8974 3.23953 19.0366 3.18802 18.954C3.13652 18.8713 3.20391 18.0637 3.18802 17.9676C3.16585 18.0625 3.17214 17.8715 3.18802 17.9676L6.14463 5.14516C6.18948 4.95412 6.96348 5.24852 7.13017 5.14516C6.93928 5.10028 7.29686 5.04181 7.13017 5.14516C7.32106 5.19004 8.01244 4.97834 8.11571 5.14516C8.21898 5.31199 8.16055 5.94046 8.11571 6.1315L6.14463 12.0496C6.4366 12.4537 7.18869 14.0222 9.10124 14.0222C11.6449 14.0222 15.0145 11.8085 15.0145 8.10419C15.0141 7.0832 14.4804 6.06073 14.0289 5.14516C13.5775 4.22959 12.8673 2.80753 12.0579 2.18613C11.2484 1.56474 10.1018 1.3989 9.10124 1.19979C8.10067 1.00068 7.13004 0.935568 6.14463 1.19979C5.15923 1.46401 3.95511 2.49939 3.18802 3.17248C2.42094 3.84556 2.59311 4.20198 2.20249 5.14516C1.81186 6.08834 1.15058 7.08536 1.21695 8.10419C1.28332 9.12302 1.69281 10.1788 2.20249 11.0632C2.29443 11.2327 2.25476 11.864 2.20249 12.0496C2.15021 12.2351 2.36932 11.9531 2.20249 12.0496C2.03565 12.146 1.4037 12.097 1.21695 12.0496C1.0302 12.0021 1.31768 12.2139 1.21695 12.0496C0.593688 10.9686 0.31276 9.34955 0.231414 8.10419C0.150068 6.85882 -0.24593 6.29813 0.231414 5.14516C0.708758 3.99219 1.26489 3.00895 2.20249 2.18613C3.14009 1.36332 4.94012 0.536442 6.14463 0.213447C7.34915 -0.109547 7.87819 -0.0299846 9.10124 0.213447C10.3243 0.45688 12.054 0.44013 13.0434 1.19979C14.0328 1.95945 14.4628 3.03958 15.0145 4.15882C15.5662 5.27806 15.9998 6.85617 16 8.10419Z" fill="white"/>
</svg>
